<svg width="1200" height="652" viewBox="0 0 1200 652" fill="none" xmlns="http://www.w3.org/2000/svg">
<path d="M464.648 370.359H489.258V414.891H464.648V477H409.375V414.891H315.039L312.109 380.125L409.18 192.625H464.648V370.359ZM362.5 370.359H409.375V272.117L408.203 271.922L405.273 277.195L362.5 370.359ZM683.203 365.477C683.203 403.367 675.651 432.143 660.547 451.805C645.573 471.336 625.456 481.102 600.195 481.102C574.674 481.102 554.362 471.336 539.258 451.805C524.154 432.143 516.602 403.367 516.602 365.477V304.344C516.602 266.583 524.089 237.872 539.062 218.211C554.167 198.419 574.414 188.523 599.805 188.523C625.195 188.523 645.443 198.419 660.547 218.211C675.651 237.872 683.203 266.583 683.203 304.344V365.477ZM627.734 299.461C627.734 276.544 625.326 259.812 620.508 249.266C615.69 238.719 608.984 233.771 600.391 234.422H599.219C590.495 233.771 583.789 238.719 579.102 249.266C574.414 259.812 572.07 276.544 572.07 299.461V369.969C572.07 393.146 574.479 410.073 579.297 420.75C584.115 431.297 590.885 436.18 599.609 435.398H600.781C609.375 436.18 616.016 431.297 620.703 420.75C625.391 410.203 627.734 393.276 627.734 369.969V299.461ZM861.914 370.359H886.523V414.891H861.914V477H806.641V414.891H712.305L709.375 380.125L806.445 192.625H861.914V370.359ZM759.766 370.359H806.641V272.117L805.469 271.922L802.539 277.195L759.766 370.359Z" fill="black"/>
<path d="M459.863 564V549.781H463.877C465.114 549.781 466.208 550.055 467.158 550.602C468.109 551.148 468.841 551.926 469.355 552.936C469.876 553.945 470.14 555.104 470.146 556.412V557.32C470.146 558.661 469.886 559.837 469.365 560.846C468.851 561.855 468.112 562.63 467.148 563.17C466.191 563.71 465.075 563.987 463.799 564H459.863ZM461.738 551.324V562.467H463.711C465.156 562.467 466.279 562.018 467.08 561.119C467.887 560.221 468.291 558.941 468.291 557.281V556.451C468.291 554.837 467.91 553.583 467.148 552.691C466.393 551.793 465.319 551.337 463.926 551.324H461.738ZM474.668 564H472.861V553.434H474.668V564ZM472.715 550.631C472.715 550.338 472.803 550.09 472.979 549.889C473.161 549.687 473.428 549.586 473.779 549.586C474.131 549.586 474.398 549.687 474.58 549.889C474.762 550.09 474.854 550.338 474.854 550.631C474.854 550.924 474.762 551.168 474.58 551.363C474.398 551.559 474.131 551.656 473.779 551.656C473.428 551.656 473.161 551.559 472.979 551.363C472.803 551.168 472.715 550.924 472.715 550.631ZM481.953 564.195C480.521 564.195 479.355 563.727 478.457 562.789C477.559 561.845 477.109 560.585 477.109 559.01V558.678C477.109 557.63 477.308 556.695 477.705 555.875C478.109 555.048 478.669 554.404 479.385 553.941C480.107 553.473 480.889 553.238 481.729 553.238C483.102 553.238 484.17 553.691 484.932 554.596C485.693 555.501 486.074 556.796 486.074 558.482V559.234H478.916C478.942 560.276 479.245 561.119 479.824 561.764C480.41 562.402 481.152 562.721 482.051 562.721C482.689 562.721 483.229 562.59 483.672 562.33C484.115 562.07 484.502 561.725 484.834 561.295L485.938 562.154C485.052 563.515 483.724 564.195 481.953 564.195ZM481.729 554.723C480.999 554.723 480.387 554.99 479.893 555.523C479.398 556.051 479.092 556.793 478.975 557.75H484.268V557.613C484.215 556.695 483.968 555.986 483.525 555.484C483.083 554.977 482.484 554.723 481.729 554.723ZM494.326 561.197C494.326 560.709 494.141 560.331 493.77 560.064C493.405 559.791 492.764 559.557 491.846 559.361C490.934 559.166 490.208 558.932 489.668 558.658C489.134 558.385 488.737 558.059 488.477 557.682C488.223 557.304 488.096 556.855 488.096 556.334C488.096 555.468 488.46 554.736 489.189 554.137C489.925 553.538 490.863 553.238 492.002 553.238C493.2 553.238 494.17 553.548 494.912 554.166C495.661 554.785 496.035 555.576 496.035 556.539H494.219C494.219 556.044 494.007 555.618 493.584 555.26C493.167 554.902 492.64 554.723 492.002 554.723C491.344 554.723 490.83 554.866 490.459 555.152C490.088 555.439 489.902 555.813 489.902 556.275C489.902 556.712 490.075 557.04 490.42 557.262C490.765 557.483 491.387 557.695 492.285 557.896C493.19 558.098 493.923 558.339 494.482 558.619C495.042 558.899 495.456 559.238 495.723 559.635C495.996 560.025 496.133 560.504 496.133 561.07C496.133 562.014 495.755 562.773 495 563.346C494.245 563.912 493.265 564.195 492.061 564.195C491.214 564.195 490.465 564.046 489.814 563.746C489.163 563.447 488.652 563.03 488.281 562.496C487.917 561.956 487.734 561.373 487.734 560.748H489.541C489.574 561.354 489.814 561.835 490.264 562.193C490.719 562.545 491.318 562.721 492.061 562.721C492.744 562.721 493.291 562.584 493.701 562.311C494.118 562.031 494.326 561.66 494.326 561.197ZM502.871 564.195C501.439 564.195 500.273 563.727 499.375 562.789C498.477 561.845 498.027 560.585 498.027 559.01V558.678C498.027 557.63 498.226 556.695 498.623 555.875C499.027 555.048 499.587 554.404 500.303 553.941C501.025 553.473 501.807 553.238 502.646 553.238C504.02 553.238 505.088 553.691 505.85 554.596C506.611 555.501 506.992 556.796 506.992 558.482V559.234H499.834C499.86 560.276 500.163 561.119 500.742 561.764C501.328 562.402 502.07 562.721 502.969 562.721C503.607 562.721 504.147 562.59 504.59 562.33C505.033 562.07 505.42 561.725 505.752 561.295L506.855 562.154C505.97 563.515 504.642 564.195 502.871 564.195ZM502.646 554.723C501.917 554.723 501.305 554.99 500.811 555.523C500.316 556.051 500.01 556.793 499.893 557.75H505.186V557.613C505.133 556.695 504.886 555.986 504.443 555.484C504.001 554.977 503.402 554.723 502.646 554.723ZM518.525 557.662C516.917 557.2 515.745 556.633 515.01 555.963C514.281 555.286 513.916 554.452 513.916 553.463C513.916 552.343 514.362 551.419 515.254 550.689C516.152 549.954 517.318 549.586 518.75 549.586C519.727 549.586 520.596 549.775 521.357 550.152C522.126 550.53 522.718 551.051 523.135 551.715C523.558 552.379 523.77 553.105 523.77 553.893H521.885C521.885 553.033 521.611 552.359 521.064 551.871C520.518 551.376 519.746 551.129 518.75 551.129C517.826 551.129 517.103 551.334 516.582 551.744C516.068 552.148 515.811 552.711 515.811 553.434C515.811 554.013 516.055 554.505 516.543 554.908C517.038 555.305 517.874 555.67 519.053 556.002C520.238 556.334 521.162 556.702 521.826 557.105C522.497 557.503 522.992 557.968 523.311 558.502C523.636 559.036 523.799 559.664 523.799 560.387C523.799 561.539 523.35 562.464 522.451 563.16C521.553 563.85 520.352 564.195 518.848 564.195C517.871 564.195 516.96 564.01 516.113 563.639C515.267 563.261 514.613 562.747 514.15 562.096C513.695 561.445 513.467 560.706 513.467 559.879H515.352C515.352 560.738 515.667 561.419 516.299 561.92C516.937 562.415 517.786 562.662 518.848 562.662C519.837 562.662 520.596 562.46 521.123 562.057C521.65 561.653 521.914 561.103 521.914 560.406C521.914 559.71 521.67 559.173 521.182 558.795C520.693 558.411 519.808 558.033 518.525 557.662ZM530.312 564.195C528.88 564.195 527.715 563.727 526.816 562.789C525.918 561.845 525.469 560.585 525.469 559.01V558.678C525.469 557.63 525.667 556.695 526.064 555.875C526.468 555.048 527.028 554.404 527.744 553.941C528.467 553.473 529.248 553.238 530.088 553.238C531.462 553.238 532.529 553.691 533.291 554.596C534.053 555.501 534.434 556.796 534.434 558.482V559.234H527.275C527.301 560.276 527.604 561.119 528.184 561.764C528.77 562.402 529.512 562.721 530.41 562.721C531.048 562.721 531.589 562.59 532.031 562.33C532.474 562.07 532.861 561.725 533.193 561.295L534.297 562.154C533.411 563.515 532.083 564.195 530.312 564.195ZM530.088 554.723C529.359 554.723 528.747 554.99 528.252 555.523C527.757 556.051 527.451 556.793 527.334 557.75H532.627V557.613C532.575 556.695 532.327 555.986 531.885 555.484C531.442 554.977 530.843 554.723 530.088 554.723ZM538.496 564H536.689V553.434H538.496V564ZM536.543 550.631C536.543 550.338 536.631 550.09 536.807 549.889C536.989 549.687 537.256 549.586 537.607 549.586C537.959 549.586 538.226 549.687 538.408 549.889C538.59 550.09 538.682 550.338 538.682 550.631C538.682 550.924 538.59 551.168 538.408 551.363C538.226 551.559 537.959 551.656 537.607 551.656C537.256 551.656 536.989 551.559 536.807 551.363C536.631 551.168 536.543 550.924 536.543 550.631ZM543.848 550.875V553.434H545.82V554.83H543.848V561.383C543.848 561.806 543.936 562.125 544.111 562.34C544.287 562.548 544.587 562.652 545.01 562.652C545.218 562.652 545.505 562.613 545.869 562.535V564C545.394 564.13 544.932 564.195 544.482 564.195C543.675 564.195 543.066 563.951 542.656 563.463C542.246 562.975 542.041 562.281 542.041 561.383V554.83H540.117V553.434H542.041V550.875H543.848ZM552.324 564.195C550.892 564.195 549.727 563.727 548.828 562.789C547.93 561.845 547.48 560.585 547.48 559.01V558.678C547.48 557.63 547.679 556.695 548.076 555.875C548.48 555.048 549.04 554.404 549.756 553.941C550.479 553.473 551.26 553.238 552.1 553.238C553.473 553.238 554.541 553.691 555.303 554.596C556.064 555.501 556.445 556.796 556.445 558.482V559.234H549.287C549.313 560.276 549.616 561.119 550.195 561.764C550.781 562.402 551.523 562.721 552.422 562.721C553.06 562.721 553.6 562.59 554.043 562.33C554.486 562.07 554.873 561.725 555.205 561.295L556.309 562.154C555.423 563.515 554.095 564.195 552.324 564.195ZM552.1 554.723C551.37 554.723 550.758 554.99 550.264 555.523C549.769 556.051 549.463 556.793 549.346 557.75H554.639V557.613C554.587 556.695 554.339 555.986 553.896 555.484C553.454 554.977 552.855 554.723 552.1 554.723ZM567.891 564.195C566.458 564.195 565.293 563.727 564.395 562.789C563.496 561.845 563.047 560.585 563.047 559.01V558.678C563.047 557.63 563.245 556.695 563.643 555.875C564.046 555.048 564.606 554.404 565.322 553.941C566.045 553.473 566.826 553.238 567.666 553.238C569.04 553.238 570.107 553.691 570.869 554.596C571.631 555.501 572.012 556.796 572.012 558.482V559.234H564.854C564.88 560.276 565.182 561.119 565.762 561.764C566.348 562.402 567.09 562.721 567.988 562.721C568.626 562.721 569.167 562.59 569.609 562.33C570.052 562.07 570.439 561.725 570.771 561.295L571.875 562.154C570.99 563.515 569.661 564.195 567.891 564.195ZM567.666 554.723C566.937 554.723 566.325 554.99 565.83 555.523C565.335 556.051 565.029 556.793 564.912 557.75H570.205V557.613C570.153 556.695 569.906 555.986 569.463 555.484C569.02 554.977 568.421 554.723 567.666 554.723ZM577.656 557.291L580 553.434H582.109L578.652 558.658L582.217 564H580.127L577.686 560.045L575.244 564H573.145L576.709 558.658L573.252 553.434H575.342L577.656 557.291ZM585.996 564H584.189V553.434H585.996V564ZM584.043 550.631C584.043 550.338 584.131 550.09 584.307 549.889C584.489 549.687 584.756 549.586 585.107 549.586C585.459 549.586 585.726 549.687 585.908 549.889C586.09 550.09 586.182 550.338 586.182 550.631C586.182 550.924 586.09 551.168 585.908 551.363C585.726 551.559 585.459 551.656 585.107 551.656C584.756 551.656 584.489 551.559 584.307 551.363C584.131 551.168 584.043 550.924 584.043 550.631ZM595.049 561.197C595.049 560.709 594.863 560.331 594.492 560.064C594.128 559.791 593.486 559.557 592.568 559.361C591.657 559.166 590.931 558.932 590.391 558.658C589.857 558.385 589.46 558.059 589.199 557.682C588.945 557.304 588.818 556.855 588.818 556.334C588.818 555.468 589.183 554.736 589.912 554.137C590.648 553.538 591.585 553.238 592.725 553.238C593.923 553.238 594.893 553.548 595.635 554.166C596.383 554.785 596.758 555.576 596.758 556.539H594.941C594.941 556.044 594.73 555.618 594.307 555.26C593.89 554.902 593.363 554.723 592.725 554.723C592.067 554.723 591.553 554.866 591.182 555.152C590.811 555.439 590.625 555.813 590.625 556.275C590.625 556.712 590.798 557.04 591.143 557.262C591.488 557.483 592.109 557.695 593.008 557.896C593.913 558.098 594.645 558.339 595.205 558.619C595.765 558.899 596.178 559.238 596.445 559.635C596.719 560.025 596.855 560.504 596.855 561.07C596.855 562.014 596.478 562.773 595.723 563.346C594.967 563.912 593.988 564.195 592.783 564.195C591.937 564.195 591.188 564.046 590.537 563.746C589.886 563.447 589.375 563.03 589.004 562.496C588.639 561.956 588.457 561.373 588.457 560.748H590.264C590.296 561.354 590.537 561.835 590.986 562.193C591.442 562.545 592.041 562.721 592.783 562.721C593.467 562.721 594.014 562.584 594.424 562.311C594.84 562.031 595.049 561.66 595.049 561.197ZM601.66 550.875V553.434H603.633V554.83H601.66V561.383C601.66 561.806 601.748 562.125 601.924 562.34C602.1 562.548 602.399 562.652 602.822 562.652C603.031 562.652 603.317 562.613 603.682 562.535V564C603.206 564.13 602.744 564.195 602.295 564.195C601.488 564.195 600.879 563.951 600.469 563.463C600.059 562.975 599.854 562.281 599.854 561.383V554.83H597.93V553.434H599.854V550.875H601.66ZM607.715 564H605.908V553.434H607.715V564ZM605.762 550.631C605.762 550.338 605.85 550.09 606.025 549.889C606.208 549.687 606.475 549.586 606.826 549.586C607.178 549.586 607.445 549.687 607.627 549.889C607.809 550.09 607.9 550.338 607.9 550.631C607.9 550.924 607.809 551.168 607.627 551.363C607.445 551.559 607.178 551.656 606.826 551.656C606.475 551.656 606.208 551.559 606.025 551.363C605.85 551.168 605.762 550.924 605.762 550.631ZM615 564.195C613.568 564.195 612.402 563.727 611.504 562.789C610.605 561.845 610.156 560.585 610.156 559.01V558.678C610.156 557.63 610.355 556.695 610.752 555.875C611.156 555.048 611.715 554.404 612.432 553.941C613.154 553.473 613.936 553.238 614.775 553.238C616.149 553.238 617.217 553.691 617.979 554.596C618.74 555.501 619.121 556.796 619.121 558.482V559.234H611.963C611.989 560.276 612.292 561.119 612.871 561.764C613.457 562.402 614.199 562.721 615.098 562.721C615.736 562.721 616.276 562.59 616.719 562.33C617.161 562.07 617.549 561.725 617.881 561.295L618.984 562.154C618.099 563.515 616.771 564.195 615 564.195ZM614.775 554.723C614.046 554.723 613.434 554.99 612.939 555.523C612.445 556.051 612.139 556.793 612.021 557.75H617.314V557.613C617.262 556.695 617.015 555.986 616.572 555.484C616.13 554.977 615.531 554.723 614.775 554.723ZM626.328 555.055C626.055 555.009 625.758 554.986 625.439 554.986C624.255 554.986 623.451 555.491 623.027 556.5V564H621.221V553.434H622.979L623.008 554.654C623.6 553.71 624.44 553.238 625.527 553.238C625.879 553.238 626.146 553.284 626.328 553.375V555.055ZM630.938 550.875V553.434H632.91V554.83H630.938V561.383C630.938 561.806 631.025 562.125 631.201 562.34C631.377 562.548 631.676 562.652 632.1 562.652C632.308 562.652 632.594 562.613 632.959 562.535V564C632.484 564.13 632.021 564.195 631.572 564.195C630.765 564.195 630.156 563.951 629.746 563.463C629.336 562.975 629.131 562.281 629.131 561.383V554.83H627.207V553.434H629.131V550.875H630.938ZM641.953 564H640.146V549H641.953V564ZM649.238 564.195C647.806 564.195 646.641 563.727 645.742 562.789C644.844 561.845 644.395 560.585 644.395 559.01V558.678C644.395 557.63 644.593 556.695 644.99 555.875C645.394 555.048 645.954 554.404 646.67 553.941C647.393 553.473 648.174 553.238 649.014 553.238C650.387 553.238 651.455 553.691 652.217 554.596C652.979 555.501 653.359 556.796 653.359 558.482V559.234H646.201C646.227 560.276 646.53 561.119 647.109 561.764C647.695 562.402 648.438 562.721 649.336 562.721C649.974 562.721 650.514 562.59 650.957 562.33C651.4 562.07 651.787 561.725 652.119 561.295L653.223 562.154C652.337 563.515 651.009 564.195 649.238 564.195ZM649.014 554.723C648.285 554.723 647.673 554.99 647.178 555.523C646.683 556.051 646.377 556.793 646.26 557.75H651.553V557.613C651.501 556.695 651.253 555.986 650.811 555.484C650.368 554.977 649.769 554.723 649.014 554.723ZM657.422 564H655.615V553.434H657.422V564ZM655.469 550.631C655.469 550.338 655.557 550.09 655.732 549.889C655.915 549.687 656.182 549.586 656.533 549.586C656.885 549.586 657.152 549.687 657.334 549.889C657.516 550.09 657.607 550.338 657.607 550.631C657.607 550.924 657.516 551.168 657.334 551.363C657.152 551.559 656.885 551.656 656.533 551.656C656.182 551.656 655.915 551.559 655.732 551.363C655.557 551.168 655.469 550.924 655.469 550.631ZM659.883 558.629C659.883 557.008 660.267 555.706 661.035 554.723C661.803 553.733 662.809 553.238 664.053 553.238C665.29 553.238 666.27 553.661 666.992 554.508V549H668.799V564H667.139L667.051 562.867C666.328 563.753 665.322 564.195 664.033 564.195C662.809 564.195 661.81 563.694 661.035 562.691C660.267 561.689 659.883 560.38 659.883 558.766V558.629ZM661.689 558.834C661.689 560.032 661.937 560.969 662.432 561.646C662.926 562.324 663.61 562.662 664.482 562.662C665.628 562.662 666.465 562.148 666.992 561.119V556.266C666.452 555.27 665.622 554.771 664.502 554.771C663.617 554.771 662.926 555.113 662.432 555.797C661.937 556.48 661.689 557.493 661.689 558.834ZM675.996 564.195C674.564 564.195 673.398 563.727 672.5 562.789C671.602 561.845 671.152 560.585 671.152 559.01V558.678C671.152 557.63 671.351 556.695 671.748 555.875C672.152 555.048 672.712 554.404 673.428 553.941C674.15 553.473 674.932 553.238 675.771 553.238C677.145 553.238 678.213 553.691 678.975 554.596C679.736 555.501 680.117 556.796 680.117 558.482V559.234H672.959C672.985 560.276 673.288 561.119 673.867 561.764C674.453 562.402 675.195 562.721 676.094 562.721C676.732 562.721 677.272 562.59 677.715 562.33C678.158 562.07 678.545 561.725 678.877 561.295L679.98 562.154C679.095 563.515 677.767 564.195 675.996 564.195ZM675.771 554.723C675.042 554.723 674.43 554.99 673.936 555.523C673.441 556.051 673.135 556.793 673.018 557.75H678.311V557.613C678.258 556.695 678.011 555.986 677.568 555.484C677.126 554.977 676.527 554.723 675.771 554.723ZM687.324 555.055C687.051 555.009 686.755 554.986 686.436 554.986C685.251 554.986 684.447 555.491 684.023 556.5V564H682.217V553.434H683.975L684.004 554.654C684.596 553.71 685.436 553.238 686.523 553.238C686.875 553.238 687.142 553.284 687.324 553.375V555.055ZM695.664 553.434L695.723 554.762C696.53 553.746 697.585 553.238 698.887 553.238C701.12 553.238 702.246 554.498 702.266 557.018V564H700.459V557.008C700.452 556.246 700.277 555.683 699.932 555.318C699.593 554.954 699.062 554.771 698.34 554.771C697.754 554.771 697.24 554.928 696.797 555.24C696.354 555.553 696.009 555.963 695.762 556.471V564H693.955V553.434H695.664ZM706.953 564H705.146V553.434H706.953V564ZM705 550.631C705 550.338 705.088 550.09 705.264 549.889C705.446 549.687 705.713 549.586 706.064 549.586C706.416 549.586 706.683 549.687 706.865 549.889C707.048 550.09 707.139 550.338 707.139 550.631C707.139 550.924 707.048 551.168 706.865 551.363C706.683 551.559 706.416 551.656 706.064 551.656C705.713 551.656 705.446 551.559 705.264 551.363C705.088 551.168 705 550.924 705 550.631ZM714.092 562.721C714.736 562.721 715.299 562.525 715.781 562.135C716.263 561.744 716.53 561.256 716.582 560.67H718.291C718.258 561.275 718.05 561.852 717.666 562.398C717.282 562.945 716.768 563.382 716.123 563.707C715.485 564.033 714.808 564.195 714.092 564.195C712.653 564.195 711.507 563.717 710.654 562.76C709.808 561.796 709.385 560.481 709.385 558.814V558.512C709.385 557.483 709.574 556.568 709.951 555.768C710.329 554.967 710.869 554.345 711.572 553.902C712.282 553.46 713.118 553.238 714.082 553.238C715.267 553.238 716.25 553.593 717.031 554.303C717.819 555.012 718.239 555.934 718.291 557.066H716.582C716.53 556.383 716.27 555.823 715.801 555.387C715.339 554.944 714.766 554.723 714.082 554.723C713.164 554.723 712.451 555.055 711.943 555.719C711.442 556.376 711.191 557.33 711.191 558.58V558.922C711.191 560.139 711.442 561.077 711.943 561.734C712.445 562.392 713.161 562.721 714.092 562.721ZM722.129 554.713C722.93 553.73 723.971 553.238 725.254 553.238C727.487 553.238 728.613 554.498 728.633 557.018V564H726.826V557.008C726.82 556.246 726.644 555.683 726.299 555.318C725.96 554.954 725.43 554.771 724.707 554.771C724.121 554.771 723.607 554.928 723.164 555.24C722.721 555.553 722.376 555.963 722.129 556.471V564H720.322V549H722.129V554.713ZM733.789 550.875V553.434H735.762V554.83H733.789V561.383C733.789 561.806 733.877 562.125 734.053 562.34C734.229 562.548 734.528 562.652 734.951 562.652C735.16 562.652 735.446 562.613 735.811 562.535V564C735.335 564.13 734.873 564.195 734.424 564.195C733.617 564.195 733.008 563.951 732.598 563.463C732.188 562.975 731.982 562.281 731.982 561.383V554.83H730.059V553.434H731.982V550.875H733.789ZM737.92 563.053C737.92 562.74 738.011 562.48 738.193 562.271C738.382 562.063 738.662 561.959 739.033 561.959C739.404 561.959 739.684 562.063 739.873 562.271C740.068 562.48 740.166 562.74 740.166 563.053C740.166 563.352 740.068 563.603 739.873 563.805C739.684 564.007 739.404 564.107 739.033 564.107C738.662 564.107 738.382 564.007 738.193 563.805C738.011 563.603 737.92 563.352 737.92 563.053Z" fill="black"/>
<path d="M496 601C496 598.239 498.239 596 501 596H697C699.761 596 702 598.239 702 601V647C702 649.761 699.761 652 697 652H501C498.239 652 496 649.761 496 647V601Z" fill="#DF2D2D"/>
<path d="M510.445 627.773H516.953V629H508.672V627.875L514.906 618.859H508.773V617.625H516.703V618.727L510.445 627.773ZM523.734 628.164C523.172 628.826 522.346 629.156 521.258 629.156C520.357 629.156 519.669 628.896 519.195 628.375C518.727 627.849 518.49 627.073 518.484 626.047V620.547H519.93V626.008C519.93 627.289 520.451 627.93 521.492 627.93C522.596 627.93 523.331 627.518 523.695 626.695V620.547H525.141V629H523.766L523.734 628.164ZM531.43 621.844C531.211 621.807 530.974 621.789 530.719 621.789C529.771 621.789 529.128 622.193 528.789 623V629H527.344V620.547H528.75L528.773 621.523C529.247 620.768 529.919 620.391 530.789 620.391C531.07 620.391 531.284 620.427 531.43 620.5V621.844ZM537.984 628.164C537.422 628.826 536.596 629.156 535.508 629.156C534.607 629.156 533.919 628.896 533.445 628.375C532.977 627.849 532.74 627.073 532.734 626.047V620.547H534.18V626.008C534.18 627.289 534.701 627.93 535.742 627.93C536.846 627.93 537.581 627.518 537.945 626.695V620.547H539.391V629H538.016L537.984 628.164ZM533.586 618.289C533.586 618.055 533.656 617.859 533.797 617.703C533.943 617.542 534.156 617.461 534.438 617.461C534.719 617.461 534.932 617.542 535.078 617.703C535.224 617.859 535.297 618.055 535.297 618.289C535.297 618.523 535.224 618.719 535.078 618.875C534.932 619.031 534.719 619.109 534.438 619.109C534.156 619.109 533.943 619.031 533.797 618.875C533.656 618.719 533.586 618.523 533.586 618.289ZM536.945 618.305C536.945 618.07 537.016 617.872 537.156 617.711C537.302 617.549 537.516 617.469 537.797 617.469C538.078 617.469 538.292 617.549 538.438 617.711C538.583 617.872 538.656 618.07 538.656 618.305C538.656 618.539 538.583 618.734 538.438 618.891C538.292 619.047 538.078 619.125 537.797 619.125C537.516 619.125 537.302 619.047 537.156 618.891C537.016 618.734 536.945 618.539 536.945 618.305ZM544.984 627.977C545.5 627.977 545.951 627.82 546.336 627.508C546.721 627.195 546.935 626.805 546.977 626.336H548.344C548.318 626.82 548.151 627.281 547.844 627.719C547.536 628.156 547.125 628.505 546.609 628.766C546.099 629.026 545.557 629.156 544.984 629.156C543.833 629.156 542.917 628.773 542.234 628.008C541.557 627.237 541.219 626.185 541.219 624.852V624.609C541.219 623.786 541.37 623.055 541.672 622.414C541.974 621.773 542.406 621.276 542.969 620.922C543.536 620.568 544.206 620.391 544.977 620.391C545.924 620.391 546.711 620.674 547.336 621.242C547.966 621.81 548.302 622.547 548.344 623.453H546.977C546.935 622.906 546.727 622.458 546.352 622.109C545.982 621.755 545.523 621.578 544.977 621.578C544.242 621.578 543.672 621.844 543.266 622.375C542.865 622.901 542.664 623.664 542.664 624.664V624.938C542.664 625.911 542.865 626.661 543.266 627.188C543.667 627.714 544.24 627.977 544.984 627.977ZM552.328 625.086L551.422 626.031V629H549.977V617H551.422V624.258L552.195 623.328L554.828 620.547H556.586L553.297 624.078L556.969 629H555.273L552.328 625.086ZM563.406 627.82H568.352V629H561.641V627.938L566.305 621.742H561.711V620.547H568.117V621.57L563.406 627.82ZM575.203 628.164C574.641 628.826 573.815 629.156 572.727 629.156C571.826 629.156 571.138 628.896 570.664 628.375C570.195 627.849 569.958 627.073 569.953 626.047V620.547H571.398V626.008C571.398 627.289 571.919 627.93 572.961 627.93C574.065 627.93 574.799 627.518 575.164 626.695V620.547H576.609V629H575.234L575.203 628.164ZM582.898 621.844C582.68 621.807 582.443 621.789 582.188 621.789C581.24 621.789 580.596 622.193 580.258 623V629H578.812V620.547H580.219L580.242 621.523C580.716 620.768 581.388 620.391 582.258 620.391C582.539 620.391 582.753 620.427 582.898 620.5V621.844ZM591.781 623.93C590.495 623.56 589.557 623.107 588.969 622.57C588.385 622.029 588.094 621.362 588.094 620.57C588.094 619.674 588.451 618.935 589.164 618.352C589.883 617.763 590.815 617.469 591.961 617.469C592.742 617.469 593.438 617.62 594.047 617.922C594.661 618.224 595.135 618.641 595.469 619.172C595.807 619.703 595.977 620.284 595.977 620.914H594.469C594.469 620.227 594.25 619.688 593.812 619.297C593.375 618.901 592.758 618.703 591.961 618.703C591.221 618.703 590.643 618.867 590.227 619.195C589.815 619.518 589.609 619.969 589.609 620.547C589.609 621.01 589.805 621.404 590.195 621.727C590.591 622.044 591.26 622.336 592.203 622.602C593.151 622.867 593.891 623.161 594.422 623.484C594.958 623.802 595.354 624.174 595.609 624.602C595.87 625.029 596 625.531 596 626.109C596 627.031 595.641 627.771 594.922 628.328C594.203 628.88 593.242 629.156 592.039 629.156C591.258 629.156 590.529 629.008 589.852 628.711C589.174 628.409 588.651 627.997 588.281 627.477C587.917 626.956 587.734 626.365 587.734 625.703H589.242C589.242 626.391 589.495 626.935 590 627.336C590.51 627.732 591.19 627.93 592.039 627.93C592.831 627.93 593.438 627.768 593.859 627.445C594.281 627.122 594.492 626.682 594.492 626.125C594.492 625.568 594.297 625.138 593.906 624.836C593.516 624.529 592.807 624.227 591.781 623.93ZM599.664 618.5V620.547H601.242V621.664H599.664V626.906C599.664 627.245 599.734 627.5 599.875 627.672C600.016 627.839 600.255 627.922 600.594 627.922C600.76 627.922 600.99 627.891 601.281 627.828V629C600.901 629.104 600.531 629.156 600.172 629.156C599.526 629.156 599.039 628.961 598.711 628.57C598.383 628.18 598.219 627.625 598.219 626.906V621.664H596.68V620.547H598.219V618.5H599.664ZM608.156 629C608.073 628.833 608.005 628.536 607.953 628.109C607.281 628.807 606.479 629.156 605.547 629.156C604.714 629.156 604.029 628.922 603.492 628.453C602.961 627.979 602.695 627.38 602.695 626.656C602.695 625.776 603.029 625.094 603.695 624.609C604.367 624.12 605.31 623.875 606.523 623.875H607.93V623.211C607.93 622.706 607.779 622.305 607.477 622.008C607.174 621.706 606.729 621.555 606.141 621.555C605.625 621.555 605.193 621.685 604.844 621.945C604.495 622.206 604.32 622.521 604.32 622.891H602.867C602.867 622.469 603.016 622.062 603.312 621.672C603.615 621.276 604.021 620.964 604.531 620.734C605.047 620.505 605.612 620.391 606.227 620.391C607.201 620.391 607.964 620.635 608.516 621.125C609.068 621.609 609.354 622.279 609.375 623.133V627.023C609.375 627.799 609.474 628.417 609.672 628.875V629H608.156ZM605.758 627.898C606.211 627.898 606.641 627.781 607.047 627.547C607.453 627.312 607.747 627.008 607.93 626.633V624.898H606.797C605.026 624.898 604.141 625.417 604.141 626.453C604.141 626.906 604.292 627.26 604.594 627.516C604.896 627.771 605.284 627.898 605.758 627.898ZM615.727 621.844C615.508 621.807 615.271 621.789 615.016 621.789C614.068 621.789 613.424 622.193 613.086 623V629H611.641V620.547H613.047L613.07 621.523C613.544 620.768 614.216 620.391 615.086 620.391C615.367 620.391 615.581 620.427 615.727 620.5V621.844ZM619.414 618.5V620.547H620.992V621.664H619.414V626.906C619.414 627.245 619.484 627.5 619.625 627.672C619.766 627.839 620.005 627.922 620.344 627.922C620.51 627.922 620.74 627.891 621.031 627.828V629C620.651 629.104 620.281 629.156 619.922 629.156C619.276 629.156 618.789 628.961 618.461 628.57C618.133 628.18 617.969 627.625 617.969 626.906V621.664H616.43V620.547H617.969V618.5H619.414ZM627.609 626.758C627.609 626.367 627.461 626.065 627.164 625.852C626.872 625.633 626.359 625.445 625.625 625.289C624.896 625.133 624.315 624.945 623.883 624.727C623.456 624.508 623.138 624.247 622.93 623.945C622.727 623.643 622.625 623.284 622.625 622.867C622.625 622.174 622.917 621.589 623.5 621.109C624.089 620.63 624.839 620.391 625.75 620.391C626.708 620.391 627.484 620.638 628.078 621.133C628.677 621.628 628.977 622.26 628.977 623.031H627.523C627.523 622.635 627.354 622.294 627.016 622.008C626.682 621.721 626.26 621.578 625.75 621.578C625.224 621.578 624.812 621.693 624.516 621.922C624.219 622.151 624.07 622.451 624.07 622.82C624.07 623.169 624.208 623.432 624.484 623.609C624.76 623.786 625.258 623.956 625.977 624.117C626.701 624.279 627.286 624.471 627.734 624.695C628.182 624.919 628.513 625.19 628.727 625.508C628.945 625.82 629.055 626.203 629.055 626.656C629.055 627.411 628.753 628.018 628.148 628.477C627.544 628.93 626.76 629.156 625.797 629.156C625.12 629.156 624.521 629.036 624 628.797C623.479 628.557 623.07 628.224 622.773 627.797C622.482 627.365 622.336 626.898 622.336 626.398H623.781C623.807 626.883 624 627.268 624.359 627.555C624.724 627.836 625.203 627.977 625.797 627.977C626.344 627.977 626.781 627.867 627.109 627.648C627.443 627.424 627.609 627.128 627.609 626.758ZM634.445 629.156C633.299 629.156 632.367 628.781 631.648 628.031C630.93 627.276 630.57 626.268 630.57 625.008V624.742C630.57 623.904 630.729 623.156 631.047 622.5C631.37 621.839 631.818 621.323 632.391 620.953C632.969 620.578 633.594 620.391 634.266 620.391C635.365 620.391 636.219 620.753 636.828 621.477C637.438 622.201 637.742 623.237 637.742 624.586V625.188H632.016C632.036 626.021 632.279 626.695 632.742 627.211C633.211 627.721 633.805 627.977 634.523 627.977C635.034 627.977 635.466 627.872 635.82 627.664C636.174 627.456 636.484 627.18 636.75 626.836L637.633 627.523C636.924 628.612 635.862 629.156 634.445 629.156ZM634.266 621.578C633.682 621.578 633.193 621.792 632.797 622.219C632.401 622.641 632.156 623.234 632.062 624H636.297V623.891C636.255 623.156 636.057 622.589 635.703 622.188C635.349 621.781 634.87 621.578 634.266 621.578ZM640.992 629H639.547V620.547H640.992V629ZM639.43 618.305C639.43 618.07 639.5 617.872 639.641 617.711C639.786 617.549 640 617.469 640.281 617.469C640.562 617.469 640.776 617.549 640.922 617.711C641.068 617.872 641.141 618.07 641.141 618.305C641.141 618.539 641.068 618.734 640.922 618.891C640.776 619.047 640.562 619.125 640.281 619.125C640 619.125 639.786 619.047 639.641 618.891C639.5 618.734 639.43 618.539 639.43 618.305ZM645.273 618.5V620.547H646.852V621.664H645.273V626.906C645.273 627.245 645.344 627.5 645.484 627.672C645.625 627.839 645.865 627.922 646.203 627.922C646.37 627.922 646.599 627.891 646.891 627.828V629C646.51 629.104 646.141 629.156 645.781 629.156C645.135 629.156 644.648 628.961 644.32 628.57C643.992 628.18 643.828 627.625 643.828 626.906V621.664H642.289V620.547H643.828V618.5H645.273ZM652.055 629.156C650.909 629.156 649.977 628.781 649.258 628.031C648.539 627.276 648.18 626.268 648.18 625.008V624.742C648.18 623.904 648.339 623.156 648.656 622.5C648.979 621.839 649.427 621.323 650 620.953C650.578 620.578 651.203 620.391 651.875 620.391C652.974 620.391 653.828 620.753 654.438 621.477C655.047 622.201 655.352 623.237 655.352 624.586V625.188H649.625C649.646 626.021 649.888 626.695 650.352 627.211C650.82 627.721 651.414 627.977 652.133 627.977C652.643 627.977 653.076 627.872 653.43 627.664C653.784 627.456 654.094 627.18 654.359 626.836L655.242 627.523C654.534 628.612 653.471 629.156 652.055 629.156ZM651.875 621.578C651.292 621.578 650.802 621.792 650.406 622.219C650.01 622.641 649.766 623.234 649.672 624H653.906V623.891C653.865 623.156 653.667 622.589 653.312 622.188C652.958 621.781 652.479 621.578 651.875 621.578Z" fill="white"/>
<path d="M678 616L676.59 617.41L682.17 623H670V625H682.17L676.59 630.59L678 632L686 624L678 616Z" fill="white"/>
<g clip-path="url(#clip0)">
<path d="M822.498 89.0999L817.438 133.54L817.218 134.64C816.998 137.06 815.458 139.26 813.478 140.58L774.978 166.1C771.898 168.08 767.498 167.42 765.518 164.12C763.538 161.26 764.198 157.3 766.838 155.1L802.478 125.4L798.738 132.44L798.518 87.7799C798.518 81.1799 803.798 75.8999 810.398 75.8999C816.998 75.8999 822.278 81.1799 822.278 87.7799C822.498 87.9999 822.498 88.6599 822.498 89.0999Z" fill="#FFDB7C"/>
<path d="M795 267.74L774.32 184.58L788.84 180.84L809.52 264L795 267.74ZM756.94 265.98L741.98 265.54L743.74 183.26L758.7 183.7L756.94 265.98Z" fill="#F9D0AD"/>
<path d="M809.301 256.74C804.461 262.24 799.841 266.2 792.581 265.1C789.281 271.48 790.381 277.2 778.721 289.96C775.421 293.7 780.481 297.88 780.481 297.88C780.481 297.88 788.181 292.38 795.001 287.32C800.721 283.14 806.001 275.88 806.001 275.88L808.861 277.2L818.321 270.38C818.321 270.38 817.441 260.04 809.301 256.74Z" fill="#A5462A"/>
<path d="M758.26 260.7C752.1 264.88 746.6 267.52 739.78 264.66C734.94 269.94 734.5 275.66 720.2 285.12C716.02 287.98 719.76 293.26 719.76 293.26C719.76 293.26 728.56 289.96 736.48 286.66C743.08 284.02 749.9 278.52 749.9 278.52L752.32 280.5L763.32 276.32C763.76 276.32 765.3 265.98 758.26 260.7Z" fill="#A5462A"/>
<path d="M840.981 193.16L782.681 194.26L792.801 179.74L806.881 239.8L787.081 244.86L770.361 185.68C768.601 179.74 772.121 173.36 778.281 171.6C778.501 171.6 778.941 171.38 779.161 171.38L780.481 171.16L837.681 160.38L840.981 193.16Z" fill="#00713C"/>
<path d="M822.499 190.52L752.539 195.14L762.659 183.7L760.459 242.44L739.999 242.22L739.559 183.48C739.559 177.98 743.299 173.36 748.579 172.26L749.679 172.04L818.319 157.96L822.499 190.52Z" fill="#00713C"/>
<path d="M867.82 157.74H810.84V164.78C810.84 180.4 823.6 193.16 839.22 193.16C854.84 193.16 867.6 180.4 867.6 164.78V157.74H867.82Z" fill="#00713C"/>
<path d="M810.84 157.74H867.6L873.54 89.9804C873.98 83.3804 870.02 77.4404 863.86 75.2404L839.22 66.4404L814.58 75.2404C808.42 77.4404 804.46 83.6004 804.9 89.9804L810.84 157.74Z" fill="#FECF44"/>
<path d="M836.799 82.72C830.419 82.72 825.359 77.66 825.359 71.28V49.5H848.239V71.28C848.239 77.66 842.959 82.72 836.799 82.72Z" fill="#F5BB88"/>
<path d="M835.481 66.2201L827.341 67.5401C821.621 68.4201 816.561 64.2401 816.121 58.5201L815.021 38.9401C814.361 28.1601 822.721 19.1401 833.501 19.1401C844.281 19.1401 852.861 28.3801 851.981 38.9401L851.541 48.4001C851.101 57.4201 844.501 64.6801 835.481 66.2201Z" fill="#F9D0AD"/>
<path d="M834.6 43.3398C834.6 42.4598 833.94 41.7998 833.06 41.7998C832.18 41.7998 831.52 42.4598 831.52 43.3398C831.52 44.2198 832.18 44.8798 833.06 44.8798C833.72 44.8798 834.6 44.2198 834.6 43.3398Z" fill="black"/>
<path d="M821.4 43.3398C821.4 42.4598 820.74 41.7998 819.86 41.7998C818.98 41.7998 818.32 42.4598 818.32 43.3398C818.32 44.2198 818.98 44.8798 819.86 44.8798C820.52 44.8798 821.4 44.2198 821.4 43.3398Z" fill="black"/>
<path d="M831.082 37.6201C831.522 36.5201 832.842 36.0801 834.162 36.3001C835.262 36.5201 836.362 37.4001 836.582 38.5001C834.382 37.6201 833.282 37.4001 831.082 37.6201Z" fill="black"/>
<path d="M816.121 38.5001C816.341 37.4001 817.221 36.5201 818.541 36.3001C819.641 36.0801 820.961 36.5201 821.621 37.6201C819.201 37.4001 818.101 37.6201 816.121 38.5001Z" fill="black"/>
<path d="M841.421 29.48C833.281 25.52 820.961 24.2 815.681 33C813.921 28.82 813.921 24.64 818.101 21.12C821.841 18.04 828.661 18.48 832.401 17.38C846.481 12.98 854.181 22.88 854.181 33.88C854.181 42.46 852.861 52.8 848.241 58.52C848.241 54.56 848.241 46.64 843.621 44.88C842.521 44.44 841.421 43.12 841.201 41.8C839.441 35.64 841.421 29.48 841.421 29.48Z" fill="black"/>
<path d="M828 157.74C828 137.72 828 98.7801 833.06 82.0601" stroke="#FDC300" stroke-width="0.31" stroke-miterlimit="10"/>
<path d="M848.243 66C848.243 66 843.402 78.54 833.062 82.06C835.262 85.14 839.662 87.78 839.662 87.78C839.662 87.78 851.763 77 853.083 71.06C850.223 68.42 848.243 66 848.243 66Z" fill="#FFDB7C"/>
<path d="M825.142 67.9805C825.142 73.4805 825.362 77.8805 832.842 82.0605C829.102 84.0405 826.462 86.9005 826.462 86.9005C826.462 86.9005 821.182 78.9805 822.062 72.8205C823.602 70.4005 825.142 67.9805 825.142 67.9805Z" fill="#FFDB7C"/>
<path d="M851.761 48.4002C851.321 57.4202 844.501 64.6802 835.701 66.0002L827.561 67.3202C821.841 68.2002 816.781 64.0202 816.341 58.3002L816.121 52.8002C816.121 52.8002 816.341 58.3002 826.241 58.3002C836.361 58.3002 840.541 56.5402 840.541 51.0402C840.541 45.7602 840.541 39.6002 840.541 36.7402" fill="black"/>
<path d="M844.943 52.3598L844.062 53.0198V44.4398C844.062 42.8998 845.163 41.7998 846.702 41.7998C848.242 41.7998 849.342 42.8998 849.342 44.4398C849.342 47.5198 847.583 50.5998 844.943 52.3598Z" fill="#F9D0AD"/>
<path d="M817.221 58.74C818.101 58.74 818.981 58.08 818.981 56.98C818.981 55 820.521 53.46 822.501 53.46H829.761C831.741 53.46 833.281 55 833.281 56.98C833.281 57.86 833.941 58.74 835.041 58.74H817.221Z" fill="black"/>
<path d="M826.022 60.4998C823.822 60.4998 821.842 58.7398 821.842 56.3198H830.202C830.202 58.7398 828.442 60.4998 826.022 60.4998Z" fill="white"/>
<path d="M824.261 53.0198H821.621C820.301 53.0198 819.421 51.4798 819.861 50.3798L824.261 41.7998L826.241 50.8198C826.241 51.9198 825.361 53.0198 824.261 53.0198Z" fill="#F5BB88"/>
<path d="M806.956 236.401L785.392 241.761L787.673 250.942L809.238 245.582L806.956 236.401Z" fill="#3B8555"/>
<path d="M738.875 238.48L738.569 247.935L761.438 248.675L761.744 239.22L738.875 238.48Z" fill="#3B8555"/>
<path d="M729.218 166.98L763.318 160.6C763.538 160.6 763.758 160.6 763.978 160.6H826.898C828.438 160.6 829.758 161.92 829.758 163.46C829.758 165 828.438 166.32 826.898 166.32L792.798 172.7H730.538C728.998 172.92 727.458 172.04 727.018 170.28C726.578 168.96 727.678 167.42 729.218 166.98Z" fill="#9D9D9C"/>
<path d="M729.88 172.92H792.8C794.34 172.92 795.66 171.6 795.66 170.06C795.66 168.52 794.34 167.2 792.8 167.2H729.88C728.34 167.2 727.02 168.52 727.02 170.06C727.02 171.6 728.12 172.92 729.88 172.92Z" fill="#878787"/>
<path d="M793.237 172.92L827.117 166.54C828.657 166.32 829.757 164.78 829.537 163.02C829.317 161.48 827.777 160.38 826.017 160.6L792.137 166.98C790.597 167.2 789.497 168.74 789.717 170.5C790.157 172.04 791.697 173.14 793.237 172.92Z" fill="#B2B2B2"/>
<path d="M730.978 166.98H788.398C790.598 166.98 791.918 165.22 791.698 163.02L783.338 109.12C782.898 106.92 780.918 105.16 778.938 105.16H721.298C719.098 105.16 717.778 106.92 717.998 109.12L726.358 163.02C726.798 165.22 728.778 166.98 730.978 166.98Z" fill="#B2B2B2"/>
<path d="M751.66 136.18C751.22 133.54 752.32 131.56 754.08 131.56C755.84 131.56 757.6 133.54 758.04 136.18C758.48 138.82 757.38 140.8 755.62 140.8C753.86 140.8 752.1 138.82 751.66 136.18Z" fill="#DADADA"/>
<path d="M876.838 89.0999L871.778 133.54L871.558 134.64C871.338 137.06 869.798 139.26 867.818 140.58L829.318 166.1C826.238 168.08 821.838 167.42 819.858 164.12C817.878 161.26 818.538 157.3 821.178 155.1L856.818 125.4L853.078 132.44L852.858 87.7799C852.858 81.1799 858.138 75.8999 864.738 75.8999C871.338 75.8999 876.618 81.1799 876.618 87.7799C876.838 87.9999 876.838 88.6599 876.838 89.0999Z" fill="#FFDB7C"/>
<path d="M801.377 172.04L800.497 170.5C800.057 169.62 800.277 168.52 801.157 168.08L817.217 158.84C820.077 157.08 823.817 158.18 825.577 161.04L825.357 160.82C827.117 163.68 826.017 167.86 823.157 169.4L813.037 175.12C809.077 177.54 803.797 176.22 801.377 172.04Z" fill="#F9D0AD"/>
<path d="M819.64 162.8C817.66 161.7 815.46 160.82 813.26 160.6C811.06 160.38 809.08 160.6 806.88 161.7C806.22 161.92 805.34 161.7 805.12 161.04C804.9 160.38 805.12 159.72 805.56 159.28C807.76 157.74 810.62 156.86 813.48 156.86C816.34 156.86 818.98 157.52 821.4 158.4C822.72 158.84 823.38 160.16 822.94 161.48C822.5 162.8 821.18 163.46 819.86 163.02C819.86 163.02 819.64 163.02 819.64 162.8Z" fill="#F9D0AD"/>
<path d="M800.501 18.92C800.501 8.36 791.921 0 781.581 0C771.241 0 762.661 8.58 762.661 18.92C762.661 29.48 771.241 37.84 781.581 37.84H800.501L795.001 32.34C798.301 29.04 800.501 24.2 800.501 18.92Z" fill="#78B7E5"/>
<path d="M783.341 18.9202C783.341 17.8202 782.461 16.9402 781.361 16.9402C780.261 16.9402 779.601 18.0402 779.601 18.9202C779.601 20.0202 780.481 20.9002 781.581 20.9002C782.681 20.9002 783.341 20.0202 783.341 18.9202Z" fill="white"/>
<path d="M773.882 18.9202C773.882 17.8202 773.002 16.9402 771.902 16.9402C770.802 16.9402 769.922 17.8202 769.922 18.9202C769.922 20.0202 770.802 20.9002 771.902 20.9002C773.002 20.9002 773.882 20.0202 773.882 18.9202Z" fill="white"/>
<path d="M793.022 18.9202C793.022 17.8202 792.142 16.9402 791.042 16.9402C789.942 16.9402 789.062 17.8202 789.062 18.9202C789.062 20.0202 789.942 20.9002 791.042 20.9002C792.142 20.9002 793.022 20.0202 793.022 18.9202Z" fill="white"/>
</g>
<path d="M265.34 203.54C265.34 202.88 265.56 202.44 266 202C266.44 201.56 266.88 201.34 267.54 201.34C268.2 201.34 268.64 201.56 269.08 202C269.52 202.44 269.74 202.88 269.74 203.54C269.74 204.2 269.52 204.64 269.08 205.08C268.64 205.52 268.2 205.74 267.54 205.74C266.88 205.74 266.22 205.52 266 205.08C265.34 204.64 265.34 204.2 265.34 203.54ZM265.56 199.14C265.56 197.82 265.78 196.72 266 195.84C266.22 194.96 266.66 194.3 267.32 193.64C267.98 192.76 268.42 192.1 268.86 191.66C269.08 191.22 269.3 190.56 269.3 190.12C269.3 188.58 268.86 187.7 267.76 187.7C267.32 187.7 266.88 187.92 266.66 188.36C266.44 188.8 266.22 189.46 266.22 190.12H262.04C262.04 188.36 262.48 186.82 263.58 185.72C264.68 184.62 266 184.18 267.76 184.18C269.52 184.18 270.84 184.62 271.94 185.72C273.04 186.82 273.48 188.14 273.48 189.9C273.48 191.44 272.82 192.76 271.72 194.3L270.62 195.62C270.18 196.06 269.96 196.5 269.74 197.16C269.52 197.6 269.52 198.26 269.52 199.14H265.56Z" fill="#A42422"/>
<path d="M242.241 190.12C242.241 189.02 242.681 188.14 243.341 187.48C244.001 186.82 244.881 186.38 245.981 186.38C247.081 186.38 247.961 186.82 248.621 187.48C249.281 188.14 249.721 189.02 249.721 190.12C249.721 191.22 249.281 192.1 248.621 192.76C247.961 193.42 247.081 193.86 245.981 193.86C244.881 193.86 244.001 193.42 243.341 192.76C242.461 192.1 242.241 191.22 242.241 190.12ZM242.901 182.86C242.901 180.66 243.121 178.9 243.561 177.58C244.001 176.26 244.881 174.94 245.981 173.84C247.081 172.52 247.961 171.42 248.401 170.54C248.621 169.44 248.841 168.56 248.841 167.68C248.841 165.04 247.961 163.72 246.201 163.72C245.321 163.72 244.881 164.16 244.221 164.82C243.781 165.48 243.341 166.58 243.341 167.9H236.521C236.521 164.82 237.401 162.4 239.161 160.64C241.141 158.88 243.341 158 246.201 158C249.281 158 251.481 158.88 253.241 160.42C255.001 162.18 255.661 164.38 255.661 167.46C255.661 169.88 254.561 172.3 252.581 174.72L250.601 176.92C249.941 177.8 249.501 178.46 249.281 179.34C249.061 180.22 248.841 181.32 248.841 182.64H242.901V182.86Z" fill="#FDC300"/>
<path d="M297.241 181.12C297.241 180.02 297.681 179.14 298.341 178.48C299.001 177.82 299.881 177.38 300.981 177.38C302.081 177.38 302.961 177.82 303.621 178.48C304.281 179.14 304.721 180.02 304.721 181.12C304.721 182.22 304.281 183.1 303.621 183.76C302.961 184.42 302.081 184.86 300.981 184.86C299.881 184.86 299.001 184.42 298.341 183.76C297.461 183.1 297.241 182.22 297.241 181.12ZM297.901 173.86C297.901 171.66 298.121 169.9 298.561 168.58C299.001 167.26 299.881 165.94 300.981 164.84C302.081 163.52 302.961 162.42 303.401 161.54C303.621 160.44 303.841 159.56 303.841 158.68C303.841 156.04 302.961 154.72 301.201 154.72C300.321 154.72 299.881 155.16 299.221 155.82C298.781 156.48 298.341 157.58 298.341 158.9H291.521C291.521 155.82 292.401 153.4 294.161 151.64C296.141 149.88 298.341 149 301.201 149C304.281 149 306.481 149.88 308.241 151.42C310.001 153.18 310.661 155.38 310.661 158.46C310.661 160.88 309.561 163.3 307.581 165.72L305.601 167.92C304.941 168.8 304.501 169.46 304.281 170.34C304.061 171.22 303.841 172.32 303.841 173.64H297.901V173.86Z" fill="#FDC300"/>
<path d="M314.62 263.38L346.52 297.26L347.18 298.14C350.48 301.66 356.2 301.88 359.72 298.58L359.94 298.36L390.08 267.34C392.72 264.7 392.72 260.3 390.08 257.66C387.66 255.24 383.7 255.02 381.06 257.22L347.62 284.06L361.04 284.94L333.1 247.76C329.14 242.48 321.66 241.38 316.38 245.34C311.1 249.3 310 256.78 313.96 262.06C313.96 262.72 314.4 262.94 314.62 263.38Z" fill="#282827"/>
<path d="M410.1 262.94L410.76 261.18C411.2 260.3 410.54 259.2 409.66 258.98L392.28 252.38C389.2 251.28 385.46 252.82 384.36 255.9C383.26 258.98 384.8 262.72 387.88 263.82L398.66 268C403.28 269.54 408.34 267.34 410.1 262.94Z" fill="#F9D0AD"/>
<path d="M390.52 256.56C392.28 255.24 394.26 254.14 396.46 253.48C398.44 252.82 400.64 252.82 402.84 253.48C403.5 253.7 404.38 253.26 404.6 252.6C404.82 251.94 404.38 251.28 403.94 251.06C401.52 249.96 398.66 249.52 395.8 249.96C392.94 250.4 390.52 251.5 388.1 252.6C387 253.26 386.56 254.58 387 255.9C387.66 257 389.2 257.44 390.3 257C390.3 256.78 390.52 256.78 390.52 256.56Z" fill="#F9D0AD"/>
<path d="M273.481 504.72L288.881 419.14L273.701 416.5L258.301 502.08L273.481 504.72ZM324.081 504.06L332.221 419.36L316.821 417.82L308.681 502.52L324.081 504.06Z" fill="#FDC300"/>
<path d="M306.039 496.58C313.299 498.12 319.239 498.78 324.519 493.5C331.119 496.8 333.539 502.08 350.259 505.6C355.319 506.7 353.559 513.08 353.559 513.08H335.519C328.479 513.08 319.899 510.22 319.899 510.22L318.359 513.08H306.699C306.699 513.08 301.419 504.06 306.039 496.58Z" fill="black"/>
<path d="M258.078 496.58C265.338 498.12 271.278 498.78 276.558 493.5C283.158 496.8 285.578 502.08 302.298 505.6C307.358 506.7 305.598 513.08 305.598 513.08H287.558C280.518 513.08 271.938 510.22 271.938 510.22L270.398 513.08H258.738C258.738 513.08 253.458 504.06 258.078 496.58Z" fill="black"/>
<path d="M268.199 341.92C268.639 348.3 268.639 354.46 269.079 360.84L269.519 379.76C269.739 386.14 269.739 392.3 269.739 398.68V417.6L269.959 416.06L267.319 434.98C266.439 441.36 265.559 447.74 264.459 453.9L261.599 472.82C260.499 479.2 259.619 485.36 258.299 491.74L278.539 495.26C279.419 488.88 280.739 482.72 281.619 476.34L285.139 457.42C286.239 451.04 287.559 444.88 288.879 438.5L292.839 419.8C292.839 419.58 292.839 419.58 292.839 419.36V418.26L294.599 399.56C295.259 393.4 295.699 387.02 296.579 380.86L298.559 362.16C299.439 356 300.099 349.62 300.979 343.46L268.199 341.92Z" fill="#3E8AB7"/>
<path d="M288.879 346.54L312.419 421.34L312.199 417.38L306.039 492.4L326.499 494.38L335.299 419.58C335.519 418.7 335.299 417.6 335.299 416.72L335.079 415.62L320.999 338.4L288.879 346.54Z" fill="#3E8AB7"/>
<path d="M265.118 336.2H322.098V343.24C322.098 359.08 309.338 371.84 293.498 371.84C277.658 371.84 264.898 359.08 264.898 343.24V336.2H265.118Z" fill="#3E8AB7"/>
<path d="M297.239 244.24C310.659 244.24 313.739 223.12 313.739 223.12C320.779 208.38 320.999 197.82 314.399 194.3C305.159 189.46 302.739 196.5 284.919 196.06C281.399 198.04 278.979 201.56 278.979 207.72C278.979 213.88 282.939 224 283.599 227.74C285.359 236.54 289.319 244.24 297.239 244.24Z" fill="#AC612A"/>
<path d="M322.1 336.2H265.12L259.18 268.22C258.74 261.62 262.7 255.68 268.86 253.48L293.72 244.68L318.58 253.48C324.74 255.68 328.7 261.84 328.26 268.22L322.1 336.2Z" fill="#E8F1FB"/>
<path d="M296.359 260.96C302.739 260.96 307.799 255.9 307.799 249.52V227.74H284.919V249.52C284.699 255.9 289.979 260.96 296.359 260.96Z" fill="#F5BB88"/>
<path d="M297.459 244.24L305.599 245.56C311.319 246.44 316.379 242.26 316.819 236.54L317.919 216.74C318.579 205.96 309.999 196.94 299.439 196.94C288.659 196.94 280.079 206.18 280.959 216.96L281.619 226.64C281.839 235.66 288.439 242.92 297.459 244.24Z" fill="#F9D0AD"/>
<path d="M298.561 221.36C298.561 220.48 299.221 219.82 300.101 219.82C300.981 219.82 301.641 220.48 301.641 221.36C301.641 222.24 300.981 222.9 300.101 222.9C299.221 223.12 298.561 222.24 298.561 221.36Z" fill="black"/>
<path d="M311.76 221.36C311.76 220.48 312.42 219.82 313.3 219.82C314.18 219.82 314.84 220.48 314.84 221.36C314.84 222.24 314.18 222.9 313.3 222.9C312.42 223.12 311.76 222.24 311.76 221.36Z" fill="black"/>
<path d="M305.82 233.46C303.62 233.02 301.42 234.56 301.2 236.76L309.34 238.08C309.56 235.88 308.02 233.68 305.82 233.46Z" fill="white"/>
<path d="M301.859 213.22C301.419 212.12 300.099 211.68 298.779 211.9C297.679 212.12 296.579 213 296.359 214.1C298.559 213.22 299.659 213 301.859 213.22Z" fill="#AC612A"/>
<path d="M317.041 214.32C316.821 213.22 315.941 212.34 314.621 212.12C313.521 211.9 312.201 212.34 311.541 213.44C313.961 213 315.061 213.22 317.041 214.32Z" fill="#AC612A"/>
<path d="M296.581 205.52C296.581 205.52 308.681 210.36 314.841 205.52C319.021 202.44 315.281 195.4 305.161 195.4C290.861 195.4 280.081 201.78 280.081 211.68C280.081 218.06 280.081 230.6 284.701 236.54C284.701 232.58 284.701 224.66 289.321 222.9C290.421 222.46 291.301 221.36 291.301 220.04C291.301 216.08 289.761 208.16 296.581 205.52Z" fill="#AC612A"/>
<path d="M287.999 230.38L288.879 231.04V222.46C288.879 220.92 287.559 219.82 286.239 219.82C284.699 219.82 283.599 220.92 283.599 222.46C283.599 225.76 285.359 228.84 287.999 230.38Z" fill="#F9D0AD"/>
<path d="M304.719 338.62H305.379V337.52C305.379 316.4 305.379 276.8 300.319 260.3L299.659 260.52C304.719 277.02 304.719 316.4 304.719 337.52V338.62Z" fill="#CFE2F6"/>
<path d="M264.459 342.58H322.759C323.419 342.58 323.859 342.14 323.859 341.48V335.54C323.859 334.88 323.419 334.44 322.759 334.44H264.679C264.019 334.44 263.579 334.88 263.579 335.54V341.48C263.359 342.14 264.019 342.58 264.459 342.58Z" fill="#A5462A"/>
<path d="M301.421 343.46H308.901C310.441 343.46 311.541 342.36 311.541 340.82V336.2C311.541 334.66 310.441 333.56 308.901 333.56H301.421C299.881 333.56 298.781 334.66 298.781 336.2V340.82C298.781 342.14 299.881 343.46 301.421 343.46ZM308.901 335.1C309.561 335.1 310.001 335.54 310.001 336.2V340.82C310.001 341.48 309.561 341.92 308.901 341.92H301.421C300.761 341.92 300.321 341.48 300.321 340.82V336.2C300.321 335.54 300.761 335.1 301.421 335.1H308.901Z" fill="#FDC300"/>
<path d="M279.201 357.32H260.501L258.081 260.74C257.861 255.02 261.161 249.3 266.881 247.98C273.261 246.44 280.301 249.52 280.301 249.52C290.201 258.32 291.301 278.12 291.301 292.42C291.301 307.6 288.441 329.38 288.441 348.3C288.221 353.14 284.261 357.32 279.201 357.32Z" fill="black"/>
<path d="M329.36 357.32L331.56 258.32C331.78 253.48 328.92 249.3 323.86 247.98C317.7 246.44 307.58 249.74 307.58 249.74C310.88 262.06 315.28 271.08 317.7 292.42C319.24 306.5 320.12 336.2 321.22 350.28C321.88 354.02 325.18 357.32 329.36 357.32Z" fill="black"/>
<path d="M255.879 247.98L227.939 285.16L241.359 284.06L207.919 257.22C205.059 254.8 200.659 255.24 198.239 258.32C196.039 260.96 196.259 264.92 198.679 267.34L228.819 298.14C232.339 301.66 237.839 301.66 241.359 298.36L241.579 298.14L242.239 297.26L274.139 263.38C278.759 258.54 278.539 251.06 273.699 246.44C268.859 241.82 261.379 242.04 256.759 246.88C256.539 247.1 256.099 247.54 255.879 247.98Z" fill="#282827"/>
<path d="M178.88 262.94L178.22 261.18C177.78 260.3 178.44 259.2 179.32 258.98L196.7 252.38C199.78 251.28 203.52 252.82 204.62 255.9C205.72 258.98 204.18 262.72 201.1 263.82L190.32 268C185.48 269.54 180.42 267.34 178.88 262.94Z" fill="#F9D0AD"/>
<path d="M200.879 252.6C198.459 251.28 196.039 250.4 193.179 249.96C190.319 249.52 187.459 249.96 185.039 251.06C184.379 251.28 184.159 252.16 184.379 252.82C184.599 253.48 185.479 253.7 185.919 253.48C188.119 252.82 190.319 252.82 192.299 253.48C194.279 254.14 196.259 255.24 198.239 256.56C199.339 257.44 200.879 257 201.539 256.12C202.419 255.02 202.199 253.48 201.099 252.82C201.099 252.6 200.879 252.6 200.879 252.6Z" fill="#F9D0AD"/>
<path d="M284.702 244.24C284.702 244.24 289.542 256.78 300.102 260.52C297.902 263.6 293.502 266.24 293.502 266.24C293.502 266.24 281.402 255.46 280.082 249.52C282.722 246.66 284.702 244.24 284.702 244.24Z" fill="white"/>
<path d="M307.8 246.22C307.8 251.72 307.58 256.12 300.1 260.3C303.84 262.28 306.7 265.14 306.7 265.14C306.7 265.14 311.98 257.22 311.1 251.06C309.34 248.64 307.8 246.22 307.8 246.22Z" fill="white"/>
<path d="M300.321 227.3H302.081C304.721 227.3 307.141 225.32 307.361 222.68L307.801 219.38C307.801 219.16 308.021 218.94 308.241 218.94C308.461 218.94 308.681 219.16 308.681 219.38L309.121 222.68C309.561 225.32 311.761 227.3 314.401 227.3H316.161C318.581 227.3 320.561 225.32 320.561 222.9V218.06H308.241C308.241 218.06 308.241 218.06 308.021 218.06H288.661C288.441 218.06 288.221 218.28 288.221 218.5C288.221 218.72 288.441 218.94 288.661 218.94H295.481V222.9C295.921 225.32 297.901 227.3 300.321 227.3ZM306.921 218.94C306.921 219.16 306.921 219.16 306.921 218.94L306.481 222.46C306.261 224.66 304.281 226.42 302.081 226.42H300.321C298.341 226.42 296.801 224.88 296.801 222.9V218.94H306.921ZM319.901 218.94V222.9C319.901 224.88 318.361 226.42 316.381 226.42H314.621C312.421 226.42 310.441 224.66 310.221 222.46L309.781 219.16V218.94H319.901Z" fill="black"/>
<path d="M308.681 231.04H311.321C312.641 231.04 313.521 229.5 313.081 228.4L308.681 219.82L306.701 228.84C306.701 229.94 307.581 231.04 308.681 231.04Z" fill="#F5BB88"/>
<defs>
<clipPath id="clip0">
<rect width="158.84" height="297.88" fill="white" transform="translate(718)"/>
</clipPath>
</defs>
</svg>
