<?xml version="1.0" encoding="utf-8"?>
<!-- Generator: Adobe Illustrator 25.4.1, SVG Export Plug-In . SVG Version: 6.00 Build 0)  -->
<svg version="1.1" id="Layer_1" xmlns="http://www.w3.org/2000/svg" xmlns:xlink="http://www.w3.org/1999/xlink" x="0px" y="0px"
	 viewBox="0 0 841.4 671.3" style="enable-background:new 0 0 841.4 671.3;" xml:space="preserve">
<style type="text/css">
	.st0{clip-path:url(#SVGID_00000127009427514375357700000010055481597264402839_);}
	.st1{fill:#FFDB7C;}
	.st2{fill:#F9D0AD;}
	.st3{fill:#A5462A;}
	.st4{fill:#00713C;}
	.st5{fill:#FECF44;}
	.st6{fill:#F5BB88;}
	.st7{fill:none;stroke:#FDC300;stroke-width:0.31;stroke-miterlimit:10;}
	.st8{fill:#FFFFFF;}
	.st9{fill:#3B8555;}
	.st10{fill:#9D9D9C;}
	.st11{fill:#878787;}
	.st12{fill:#B2B2B2;}
	.st13{fill:#DADADA;}
	.st14{fill:#78B7E5;}
	.st15{fill:#A42422;}
	.st16{fill:#FDC300;}
	.st17{fill:#282827;}
	.st18{fill:#3E8AB7;}
	.st19{fill:#AC612A;}
	.st20{fill:#E8F1FB;}
	.st21{fill:#CFE2F6;}
</style>
<path d="M286.6,370.4h24.6v44.5h-24.6V477h-55.3v-62.1H137l-2.9-34.8l97.1-187.5h55.5V370.4z M184.4,370.4h46.9v-98.2l-1.2-0.2
	l-2.9,5.3L184.4,370.4z M505.1,365.5c0,37.9-7.6,66.7-22.7,86.3c-15,19.5-35.1,29.3-60.4,29.3c-25.5,0-45.8-9.8-60.9-29.3
	c-15.1-19.7-22.7-48.4-22.7-86.3v-61.1c0-37.8,7.5-66.5,22.5-86.1c15.1-19.8,35.4-29.7,60.7-29.7c25.4,0,45.6,9.9,60.7,29.7
	c15.1,19.7,22.7,48.4,22.7,86.1V365.5z M449.7,299.5c0-22.9-2.4-39.6-7.2-50.2c-4.8-10.5-11.5-15.5-20.1-14.8h-1.2
	c-8.7-0.7-15.4,4.3-20.1,14.8c-4.7,10.5-7,27.3-7,50.2V370c0,23.2,2.4,40.1,7.2,50.8c4.8,10.5,11.6,15.4,20.3,14.6h1.2
	c8.6,0.8,15.2-4.1,19.9-14.6c4.7-10.5,7-27.5,7-50.8V299.5z M683.8,370.4h24.6v44.5h-24.6V477h-55.3v-62.1h-94.3l-2.9-34.8
	l97.1-187.5h55.5V370.4z M581.7,370.4h46.9v-98.2l-1.2-0.2l-2.9,5.3L581.7,370.4z"/>
<g>
	<defs>
		<rect id="SVGID_1_" x="539.9" width="158.8" height="297.9"/>
	</defs>
	<clipPath id="SVGID_00000106119338158519705180000014457461791490128268_">
		<use xlink:href="#SVGID_1_"  style="overflow:visible;"/>
	</clipPath>
	<g style="clip-path:url(#SVGID_00000106119338158519705180000014457461791490128268_);">
		<path class="st1" d="M644.4,89.1l-5.1,44.4l-0.2,1.1c-0.2,2.4-1.8,4.6-3.7,5.9l-38.5,25.5c-3.1,2-7.5,1.3-9.5-2
			c-2-2.9-1.3-6.8,1.3-9l35.6-29.7l-3.7,7l-0.2-44.7c0-6.6,5.3-11.9,11.9-11.9c6.6,0,11.9,5.3,11.9,11.9
			C644.4,88,644.4,88.7,644.4,89.1z"/>
		<path class="st2" d="M616.9,267.7l-20.7-83.2l14.5-3.7l20.7,83.2L616.9,267.7z M578.9,266l-15-0.4l1.8-82.3l15,0.4L578.9,266z"/>
		<path class="st3" d="M631.2,256.7c-4.8,5.5-9.5,9.5-16.7,8.4c-3.3,6.4-2.2,12.1-13.9,24.9c-3.3,3.7,1.8,7.9,1.8,7.9
			s7.7-5.5,14.5-10.6c5.7-4.2,11-11.4,11-11.4l2.9,1.3l9.5-6.8C640.2,270.4,639.4,260,631.2,256.7z"/>
		<path class="st3" d="M580.2,260.7c-6.2,4.2-11.7,6.8-18.5,4c-4.8,5.3-5.3,11-19.6,20.5c-4.2,2.9-0.4,8.1-0.4,8.1s8.8-3.3,16.7-6.6
			c6.6-2.6,13.4-8.1,13.4-8.1l2.4,2l11-4.2C585.7,276.3,587.2,266,580.2,260.7z"/>
		<path class="st4" d="M662.9,193.2l-58.3,1.1l10.1-14.5l14.1,60.1l-19.8,5.1l-16.7-59.2c-1.8-5.9,1.8-12.3,7.9-14.1
			c0.2,0,0.7-0.2,0.9-0.2l1.3-0.2l57.2-10.8L662.9,193.2z"/>
		<path class="st4" d="M644.4,190.5l-70,4.6l10.1-11.4l-2.2,58.7l-20.5-0.2l-0.4-58.7c0-5.5,3.7-10.1,9-11.2l1.1-0.2l68.6-14.1
			L644.4,190.5z"/>
		<path class="st4" d="M689.7,157.7h-57v7c0,15.6,12.8,28.4,28.4,28.4c15.6,0,28.4-12.8,28.4-28.4v-7H689.7z"/>
		<path class="st5" d="M632.8,157.7h56.8l5.9-67.8c0.4-6.6-3.5-12.5-9.7-14.7l-24.6-8.8l-24.6,8.8c-6.2,2.2-10.1,8.4-9.7,14.7
			L632.8,157.7z"/>
		<path class="st6" d="M658.7,82.7c-6.4,0-11.4-5.1-11.4-11.4V49.5h22.9v21.8C670.2,77.7,664.9,82.7,658.7,82.7z"/>
		<path class="st2" d="M657.4,66.2l-8.1,1.3c-5.7,0.9-10.8-3.3-11.2-9l-1.1-19.6c-0.7-10.8,7.7-19.8,18.5-19.8
			c10.8,0,19.4,9.2,18.5,19.8l-0.4,9.5C673,57.4,666.4,64.7,657.4,66.2z"/>
		<path d="M656.5,43.3c0-0.9-0.7-1.5-1.5-1.5s-1.5,0.7-1.5,1.5c0,0.9,0.7,1.5,1.5,1.5C655.6,44.9,656.5,44.2,656.5,43.3z"/>
		<path d="M643.3,43.3c0-0.9-0.7-1.5-1.5-1.5s-1.5,0.7-1.5,1.5c0,0.9,0.7,1.5,1.5,1.5C642.4,44.9,643.3,44.2,643.3,43.3z"/>
		<path d="M653,37.6c0.4-1.1,1.8-1.5,3.1-1.3c1.1,0.2,2.2,1.1,2.4,2.2C656.3,37.6,655.2,37.4,653,37.6z"/>
		<path d="M638,38.5c0.2-1.1,1.1-2,2.4-2.2c1.1-0.2,2.4,0.2,3.1,1.3C641.1,37.4,640,37.6,638,38.5z"/>
		<path d="M663.3,29.5c-8.1-4-20.5-5.3-25.7,3.5c-1.8-4.2-1.8-8.4,2.4-11.9c3.7-3.1,10.6-2.6,14.3-3.7c14.1-4.4,21.8,5.5,21.8,16.5
			c0,8.6-1.3,18.9-5.9,24.6c0-4,0-11.9-4.6-13.6c-1.1-0.4-2.2-1.8-2.4-3.1C661.4,35.6,663.3,29.5,663.3,29.5z"/>
		<path class="st7" d="M649.9,157.7c0-20,0-59,5.1-75.7"/>
		<path class="st1" d="M670.2,66c0,0-4.8,12.5-15.2,16.1c2.2,3.1,6.6,5.7,6.6,5.7S673.7,77,675,71.1C672.1,68.4,670.2,66,670.2,66z"
			/>
		<path class="st1" d="M647.1,68c0,5.5,0.2,9.9,7.7,14.1c-3.7,2-6.4,4.8-6.4,4.8s-5.3-7.9-4.4-14.1C645.5,70.4,647.1,68,647.1,68z"
			/>
		<path d="M673.7,48.4c-0.4,9-7.3,16.3-16.1,17.6l-8.1,1.3c-5.7,0.9-10.8-3.3-11.2-9l-0.2-5.5c0,0,0.2,5.5,10.1,5.5
			c10.1,0,14.3-1.8,14.3-7.3c0-5.3,0-11.4,0-14.3"/>
		<path class="st2" d="M666.9,52.4L666,53v-8.6c0-1.5,1.1-2.6,2.6-2.6c1.5,0,2.6,1.1,2.6,2.6C671.3,47.5,669.5,50.6,666.9,52.4z"/>
		<path d="M639.1,58.7c0.9,0,1.8-0.7,1.8-1.8c0-2,1.5-3.5,3.5-3.5h7.3c2,0,3.5,1.5,3.5,3.5c0,0.9,0.7,1.8,1.8,1.8H639.1z"/>
		<path class="st8" d="M647.9,60.5c-2.2,0-4.2-1.8-4.2-4.2h8.4C652.1,58.7,650.4,60.5,647.9,60.5z"/>
		<path class="st6" d="M646.2,53h-2.6c-1.3,0-2.2-1.5-1.8-2.6l4.4-8.6l2,9C648.2,51.9,647.3,53,646.2,53z"/>
		<path class="st9" d="M628.9,236.4l-21.6,5.4l2.3,9.2l21.6-5.4L628.9,236.4z"/>
		<path class="st9" d="M560.8,238.5l-0.3,9.5l22.9,0.7l0.3-9.5L560.8,238.5z"/>
		<path class="st10" d="M551.1,167l34.1-6.4c0.2,0,0.4,0,0.7,0h62.9c1.5,0,2.9,1.3,2.9,2.9c0,1.5-1.3,2.9-2.9,2.9l-34.1,6.4h-62.3
			c-1.5,0.2-3.1-0.7-3.5-2.4C548.5,169,549.6,167.4,551.1,167z"/>
		<path class="st11" d="M551.8,172.9h62.9c1.5,0,2.9-1.3,2.9-2.9c0-1.5-1.3-2.9-2.9-2.9h-62.9c-1.5,0-2.9,1.3-2.9,2.9
			C548.9,171.6,550,172.9,551.8,172.9z"/>
		<path class="st12" d="M615.2,172.9l33.9-6.4c1.5-0.2,2.6-1.8,2.4-3.5c-0.2-1.5-1.8-2.6-3.5-2.4l-33.9,6.4
			c-1.5,0.2-2.6,1.8-2.4,3.5C612.1,172,613.6,173.1,615.2,172.9z"/>
		<path class="st12" d="M552.9,167h57.4c2.2,0,3.5-1.8,3.3-4l-8.4-53.9c-0.4-2.2-2.4-4-4.4-4h-57.6c-2.2,0-3.5,1.8-3.3,4l8.4,53.9
			C548.7,165.2,550.7,167,552.9,167z"/>
		<path class="st13" d="M573.6,136.2c-0.4-2.6,0.7-4.6,2.4-4.6s3.5,2,4,4.6c0.4,2.6-0.7,4.6-2.4,4.6S574,138.8,573.6,136.2z"/>
		<path class="st1" d="M698.8,89.1l-5.1,44.4l-0.2,1.1c-0.2,2.4-1.8,4.6-3.7,5.9l-38.5,25.5c-3.1,2-7.5,1.3-9.5-2
			c-2-2.9-1.3-6.8,1.3-9l35.6-29.7l-3.7,7l-0.2-44.7c0-6.6,5.3-11.9,11.9-11.9c6.6,0,11.9,5.3,11.9,11.9
			C698.8,88,698.8,88.7,698.8,89.1z"/>
		<path class="st2" d="M623.3,172l-0.9-1.5c-0.4-0.9-0.2-2,0.7-2.4l16.1-9.2c2.9-1.8,6.6-0.7,8.4,2.2l-0.2-0.2
			c1.8,2.9,0.7,7-2.2,8.6l-10.1,5.7C631,177.5,625.7,176.2,623.3,172z"/>
		<path class="st2" d="M641.6,162.8c-2-1.1-4.2-2-6.4-2.2s-4.2,0-6.4,1.1c-0.7,0.2-1.5,0-1.8-0.7c-0.2-0.7,0-1.3,0.4-1.8
			c2.2-1.5,5.1-2.4,7.9-2.4c2.9,0,5.5,0.7,7.9,1.5c1.3,0.4,2,1.8,1.5,3.1c-0.4,1.3-1.8,2-3.1,1.5C641.8,163,641.6,163,641.6,162.8z"
			/>
		<path class="st14" d="M622.4,18.9c0-10.6-8.6-18.9-18.9-18.9c-10.3,0-18.9,8.6-18.9,18.9c0,10.6,8.6,18.9,18.9,18.9h18.9l-5.5-5.5
			C620.2,29,622.4,24.2,622.4,18.9z"/>
		<path class="st8" d="M605.3,18.9c0-1.1-0.9-2-2-2c-1.1,0-1.8,1.1-1.8,2c0,1.1,0.9,2,2,2C604.6,20.9,605.3,20,605.3,18.9z"/>
		<path class="st8" d="M595.8,18.9c0-1.1-0.9-2-2-2c-1.1,0-2,0.9-2,2s0.9,2,2,2C594.9,20.9,595.8,20,595.8,18.9z"/>
		<path class="st8" d="M614.9,18.9c0-1.1-0.9-2-2-2c-1.1,0-2,0.9-2,2s0.9,2,2,2C614.1,20.9,614.9,20,614.9,18.9z"/>
	</g>
</g>
<path class="st15" d="M87.3,203.5c0-0.7,0.2-1.1,0.7-1.5s0.9-0.7,1.5-0.7s1.1,0.2,1.5,0.7c0.4,0.4,0.7,0.9,0.7,1.5
	c0,0.7-0.2,1.1-0.7,1.5c-0.4,0.4-0.9,0.7-1.5,0.7s-1.3-0.2-1.5-0.7C87.3,204.6,87.3,204.2,87.3,203.5z M87.5,199.1
	c0-1.3,0.2-2.4,0.4-3.3c0.2-0.9,0.7-1.5,1.3-2.2c0.7-0.9,1.1-1.5,1.5-2c0.2-0.4,0.4-1.1,0.4-1.5c0-1.5-0.4-2.4-1.5-2.4
	c-0.4,0-0.9,0.2-1.1,0.7s-0.4,1.1-0.4,1.8H84c0-1.8,0.4-3.3,1.5-4.4c1.1-1.1,2.4-1.5,4.2-1.5c1.8,0,3.1,0.4,4.2,1.5s1.5,2.4,1.5,4.2
	c0,1.5-0.7,2.9-1.8,4.4l-1.1,1.3c-0.4,0.4-0.7,0.9-0.9,1.5c-0.2,0.4-0.2,1.1-0.2,2H87.5z"/>
<path class="st16" d="M64.2,190.1c0-1.1,0.4-2,1.1-2.6c0.7-0.7,1.5-1.1,2.6-1.1c1.1,0,2,0.4,2.6,1.1c0.7,0.7,1.1,1.5,1.1,2.6
	c0,1.1-0.4,2-1.1,2.6c-0.7,0.7-1.5,1.1-2.6,1.1c-1.1,0-2-0.4-2.6-1.1C64.4,192.1,64.2,191.2,64.2,190.1z M64.8,182.9
	c0-2.2,0.2-4,0.7-5.3c0.4-1.3,1.3-2.6,2.4-3.7c1.1-1.3,2-2.4,2.4-3.3c0.2-1.1,0.4-2,0.4-2.9c0-2.6-0.9-4-2.6-4c-0.9,0-1.3,0.4-2,1.1
	c-0.4,0.7-0.9,1.8-0.9,3.1h-6.8c0-3.1,0.9-5.5,2.6-7.3c2-1.8,4.2-2.6,7-2.6c3.1,0,5.3,0.9,7,2.4c1.8,1.8,2.4,4,2.4,7
	c0,2.4-1.1,4.8-3.1,7.3l-2,2.2c-0.7,0.9-1.1,1.5-1.3,2.4c-0.2,0.9-0.4,2-0.4,3.3h-5.9V182.9z"/>
<path class="st16" d="M119.2,181.1c0-1.1,0.4-2,1.1-2.6c0.7-0.7,1.5-1.1,2.6-1.1c1.1,0,2,0.4,2.6,1.1c0.7,0.7,1.1,1.5,1.1,2.6
	c0,1.1-0.4,2-1.1,2.6c-0.7,0.7-1.5,1.1-2.6,1.1c-1.1,0-2-0.4-2.6-1.1C119.4,183.1,119.2,182.2,119.2,181.1z M119.8,173.9
	c0-2.2,0.2-4,0.7-5.3c0.4-1.3,1.3-2.6,2.4-3.7c1.1-1.3,2-2.4,2.4-3.3c0.2-1.1,0.4-2,0.4-2.9c0-2.6-0.9-4-2.6-4c-0.9,0-1.3,0.4-2,1.1
	c-0.4,0.7-0.9,1.8-0.9,3.1h-6.8c0-3.1,0.9-5.5,2.6-7.3c2-1.8,4.2-2.6,7-2.6c3.1,0,5.3,0.9,7,2.4c1.8,1.8,2.4,4,2.4,7
	c0,2.4-1.1,4.8-3.1,7.3l-2,2.2c-0.7,0.9-1.1,1.5-1.3,2.4c-0.2,0.9-0.4,2-0.4,3.3h-5.9V173.9z"/>
<path class="st17" d="M136.5,263.4l31.9,33.9l0.7,0.9c3.3,3.5,9,3.7,12.5,0.4l0.2-0.2l30.1-31c2.6-2.6,2.6-7,0-9.7
	c-2.4-2.4-6.4-2.6-9-0.4l-33.4,26.8l13.4,0.9L155,247.8c-4-5.3-11.4-6.4-16.7-2.4c-5.3,4-6.4,11.4-2.4,16.7
	C135.9,262.7,136.3,262.9,136.5,263.4z"/>
<path class="st2" d="M232,262.9l0.7-1.8c0.4-0.9-0.2-2-1.1-2.2l-17.4-6.6c-3.1-1.1-6.8,0.4-7.9,3.5c-1.1,3.1,0.4,6.8,3.5,7.9
	l10.8,4.2C225.2,269.5,230.3,267.3,232,262.9z"/>
<path class="st2" d="M212.4,256.6c1.8-1.3,3.7-2.4,5.9-3.1c2-0.7,4.2-0.7,6.4,0c0.7,0.2,1.5-0.2,1.8-0.9c0.2-0.7-0.2-1.3-0.7-1.5
	c-2.4-1.1-5.3-1.5-8.1-1.1c-2.9,0.4-5.3,1.5-7.7,2.6c-1.1,0.7-1.5,2-1.1,3.3c0.7,1.1,2.2,1.5,3.3,1.1
	C212.2,256.8,212.4,256.8,212.4,256.6z"/>
<path class="st16" d="M95.4,504.7l15.4-85.6l-15.2-2.6l-15.4,85.6L95.4,504.7z M146,504.1l8.1-84.7l-15.4-1.5l-8.1,84.7L146,504.1z"
	/>
<path d="M128,496.6c7.3,1.5,13.2,2.2,18.5-3.1c6.6,3.3,9,8.6,25.7,12.1c5.1,1.1,3.3,7.5,3.3,7.5h-18c-7,0-15.6-2.9-15.6-2.9
	l-1.5,2.9h-11.7C128.6,513.1,123.3,504.1,128,496.6z"/>
<path d="M80,496.6c7.3,1.5,13.2,2.2,18.5-3.1c6.6,3.3,9,8.6,25.7,12.1c5.1,1.1,3.3,7.5,3.3,7.5h-18c-7,0-15.6-2.9-15.6-2.9l-1.5,2.9
	H80.7C80.7,513.1,75.4,504.1,80,496.6z"/>
<path class="st18" d="M90.1,341.9c0.4,6.4,0.4,12.5,0.9,18.9l0.4,18.9c0.2,6.4,0.2,12.5,0.2,18.9v18.9l0.2-1.5L89.2,435
	c-0.9,6.4-1.8,12.8-2.9,18.9l-2.9,18.9c-1.1,6.4-2,12.5-3.3,18.9l20.2,3.5c0.9-6.4,2.2-12.5,3.1-18.9l3.5-18.9
	c1.1-6.4,2.4-12.5,3.7-18.9l4-18.7c0-0.2,0-0.2,0-0.4v-1.1l1.8-18.7c0.7-6.2,1.1-12.5,2-18.7l2-18.7c0.9-6.2,1.5-12.5,2.4-18.7
	L90.1,341.9z"/>
<path class="st18" d="M110.8,346.5l23.5,74.8l-0.2-4l-6.2,75l20.5,2l8.8-74.8c0.2-0.9,0-2,0-2.9l-0.2-1.1l-14.1-77.2L110.8,346.5z"
	/>
<path class="st18" d="M87,336.2h57v7c0,15.8-12.8,28.6-28.6,28.6c-15.8,0-28.6-12.8-28.6-28.6v-7H87z"/>
<path class="st19" d="M119.2,244.2c13.4,0,16.5-21.1,16.5-21.1c7-14.7,7.3-25.3,0.7-28.8c-9.2-4.8-11.7,2.2-29.5,1.8
	c-3.5,2-5.9,5.5-5.9,11.7s4,16.3,4.6,20C107.3,236.5,111.2,244.2,119.2,244.2z"/>
<path class="st20" d="M144,336.2H87l-5.9-68c-0.4-6.6,3.5-12.5,9.7-14.7l24.9-8.8l24.9,8.8c6.2,2.2,10.1,8.4,9.7,14.7L144,336.2z"/>
<path class="st6" d="M118.3,261c6.4,0,11.4-5.1,11.4-11.4v-21.8h-22.9v21.8C106.6,255.9,111.9,261,118.3,261z"/>
<path class="st2" d="M119.4,244.2l8.1,1.3c5.7,0.9,10.8-3.3,11.2-9l1.1-19.8c0.7-10.8-7.9-19.8-18.5-19.8c-10.8,0-19.4,9.2-18.5,20
	l0.7,9.7C103.8,235.7,110.4,242.9,119.4,244.2z"/>
<path d="M120.5,221.4c0-0.9,0.7-1.5,1.5-1.5c0.9,0,1.5,0.7,1.5,1.5s-0.7,1.5-1.5,1.5C121.1,223.1,120.5,222.2,120.5,221.4z"/>
<path d="M133.7,221.4c0-0.9,0.7-1.5,1.5-1.5c0.9,0,1.5,0.7,1.5,1.5s-0.7,1.5-1.5,1.5C134.3,223.1,133.7,222.2,133.7,221.4z"/>
<path class="st8" d="M127.7,233.5c-2.2-0.4-4.4,1.1-4.6,3.3l8.1,1.3C131.5,235.9,129.9,233.7,127.7,233.5z"/>
<path class="st19" d="M123.8,213.2c-0.4-1.1-1.8-1.5-3.1-1.3c-1.1,0.2-2.2,1.1-2.4,2.2C120.5,213.2,121.6,213,123.8,213.2z"/>
<path class="st19" d="M139,214.3c-0.2-1.1-1.1-2-2.4-2.2c-1.1-0.2-2.4,0.2-3.1,1.3C135.9,213,137,213.2,139,214.3z"/>
<path class="st19" d="M118.5,205.5c0,0,12.1,4.8,18.3,0c4.2-3.1,0.4-10.1-9.7-10.1c-14.3,0-25.1,6.4-25.1,16.3
	c0,6.4,0,18.9,4.6,24.9c0-4,0-11.9,4.6-13.6c1.1-0.4,2-1.5,2-2.9C113.2,216.1,111.7,208.2,118.5,205.5z"/>
<path class="st2" d="M109.9,230.4l0.9,0.7v-8.6c0-1.5-1.3-2.6-2.6-2.6c-1.5,0-2.6,1.1-2.6,2.6C105.5,225.8,107.3,228.8,109.9,230.4z
	"/>
<path class="st21" d="M126.6,338.6h0.7v-1.1c0-21.1,0-60.7-5.1-77.2l-0.7,0.2c5.1,16.5,5.1,55.9,5.1,77V338.6z"/>
<path class="st3" d="M86.4,342.6h58.3c0.7,0,1.1-0.4,1.1-1.1v-5.9c0-0.7-0.4-1.1-1.1-1.1H86.6c-0.7,0-1.1,0.4-1.1,1.1v5.9
	C85.3,342.1,85.9,342.6,86.4,342.6z"/>
<path class="st16" d="M123.3,343.5h7.5c1.5,0,2.6-1.1,2.6-2.6v-4.6c0-1.5-1.1-2.6-2.6-2.6h-7.5c-1.5,0-2.6,1.1-2.6,2.6v4.6
	C120.7,342.1,121.8,343.5,123.3,343.5z M130.8,335.1c0.7,0,1.1,0.4,1.1,1.1v4.6c0,0.7-0.4,1.1-1.1,1.1h-7.5c-0.7,0-1.1-0.4-1.1-1.1
	v-4.6c0-0.7,0.4-1.1,1.1-1.1H130.8z"/>
<path d="M101.1,357.3H82.4L80,260.7c-0.2-5.7,3.1-11.4,8.8-12.8c6.4-1.5,13.4,1.5,13.4,1.5c9.9,8.8,11,28.6,11,42.9
	c0,15.2-2.9,37-2.9,55.9C110.1,353.1,106.2,357.3,101.1,357.3z"/>
<path d="M151.3,357.3l2.2-99c0.2-4.8-2.6-9-7.7-10.3c-6.2-1.5-16.3,1.8-16.3,1.8c3.3,12.3,7.7,21.3,10.1,42.7
	c1.5,14.1,2.4,43.8,3.5,57.9C143.8,354,147.1,357.3,151.3,357.3z"/>
<path class="st17" d="M77.8,248l-27.9,37.2l13.4-1.1l-33.4-26.8c-2.9-2.4-7.3-2-9.7,1.1c-2.2,2.6-2,6.6,0.4,9l30.1,30.8
	c3.5,3.5,9,3.5,12.5,0.2l0.2-0.2l0.7-0.9l31.9-33.9c4.6-4.8,4.4-12.3-0.4-16.9s-12.3-4.4-16.9,0.4C78.5,247.1,78,247.5,77.8,248z"/>
<path class="st2" d="M0.8,262.9l-0.7-1.8c-0.4-0.9,0.2-2,1.1-2.2l17.4-6.6c3.1-1.1,6.8,0.4,7.9,3.5c1.1,3.1-0.4,6.8-3.5,7.9
	L12.2,268C7.4,269.5,2.3,267.3,0.8,262.9z"/>
<path class="st2" d="M22.8,252.6c-2.4-1.3-4.8-2.2-7.7-2.6c-2.9-0.4-5.7,0-8.1,1.1c-0.7,0.2-0.9,1.1-0.7,1.8
	c0.2,0.7,1.1,0.9,1.5,0.7c2.2-0.7,4.4-0.7,6.4,0c2,0.7,4,1.8,5.9,3.1c1.1,0.9,2.6,0.4,3.3-0.4c0.9-1.1,0.7-2.6-0.4-3.3
	C23,252.6,22.8,252.6,22.8,252.6z"/>
<path class="st8" d="M106.6,244.2c0,0,4.8,12.5,15.4,16.3c-2.2,3.1-6.6,5.7-6.6,5.7s-12.1-10.8-13.4-16.7
	C104.6,246.7,106.6,244.2,106.6,244.2z"/>
<path class="st8" d="M129.7,246.2c0,5.5-0.2,9.9-7.7,14.1c3.7,2,6.6,4.8,6.6,4.8s5.3-7.9,4.4-14.1
	C131.3,248.6,129.7,246.2,129.7,246.2z"/>
<path d="M122.2,227.3h1.8c2.6,0,5.1-2,5.3-4.6l0.4-3.3c0-0.2,0.2-0.4,0.4-0.4s0.4,0.2,0.4,0.4l0.4,3.3c0.4,2.6,2.6,4.6,5.3,4.6h1.8
	c2.4,0,4.4-2,4.4-4.4v-4.8h-12.3c0,0,0,0-0.2,0h-19.4c-0.2,0-0.4,0.2-0.4,0.4s0.2,0.4,0.4,0.4h6.8v4
	C117.8,225.3,119.8,227.3,122.2,227.3z M128.8,218.9C128.8,219.2,128.8,219.2,128.8,218.9l-0.4,3.5c-0.2,2.2-2.2,4-4.4,4h-1.8
	c-2,0-3.5-1.5-3.5-3.5v-4H128.8z M141.8,218.9v4c0,2-1.5,3.5-3.5,3.5h-1.8c-2.2,0-4.2-1.8-4.4-4l-0.4-3.3v-0.2H141.8z"/>
<path class="st6" d="M130.6,231h2.6c1.3,0,2.2-1.5,1.8-2.6l-4.4-8.6l-2,9C128.6,229.9,129.5,231,130.6,231z"/>
</svg>
