<svg width="32" height="32" viewBox="0 0 32 32" fill="none" xmlns="http://www.w3.org/2000/svg">
<path d="M4.06286 0.700243C3.13294 -0.233414 1.62736 -0.233414 0.697439 0.700243C-0.23248 1.6339 -0.23248 3.14554 0.697439 4.07919L12.565 15.9944L0.697439 27.9097C-0.23248 28.8433 -0.23248 30.355 0.697439 31.2886C1.62736 32.2223 3.13294 32.2223 4.06286 31.2886L15.9304 19.3734L19.2958 15.9944L4.06286 0.700243Z" fill="white"/>
<path d="M31.2959 4.06749C32.2701 3.08937 32.2258 1.53327 31.2073 0.599615C30.2331 -0.289582 28.7276 -0.156203 27.7976 0.777455L22.8381 5.80142C21.9081 6.73508 21.9081 8.24671 22.8381 9.18037C23.768 10.114 25.2736 10.114 26.2035 9.18037L31.2959 4.06749Z" fill="white"/>
<path d="M19.3511 16.0056L15.9414 19.3845L27.8089 31.2998C28.7389 32.2334 30.2444 32.2334 31.1744 31.2998C32.1043 30.3661 32.1043 28.8545 31.1744 27.9208L19.3511 16.0056Z" fill="url(#paint0_linear)"/>
<defs>
<linearGradient id="paint0_linear" x1="17.6353" y1="17.7053" x2="31.2365" y2="31.252" gradientUnits="userSpaceOnUse">
<stop stop-color="white" stop-opacity="0.5"/>
<stop offset="0.0896271" stop-color="white" stop-opacity="0.5448"/>
<stop offset="1" stop-color="white"/>
</linearGradient>
</defs>
</svg>
