<svg width="18" height="19" viewBox="0 0 18 19" fill="none" xmlns="http://www.w3.org/2000/svg">
<path fill-rule="evenodd" clip-rule="evenodd" d="M7.176 0C3.20444 0 0 3.2751 0 7.271C0 11.2669 3.20444 14.542 7.176 14.542C8.86503 14.542 10.4153 13.9496 11.6394 12.9614L16.569 18.0113L18.0001 16.6142L13.0092 11.5015C13.8547 10.3073 14.352 8.84508 14.352 7.271C14.352 3.2751 11.1476 0 7.176 0ZM2 7.271C2 4.3509 4.33756 2 7.176 2C10.0144 2 12.352 4.3509 12.352 7.271C12.352 10.1911 10.0144 12.542 7.176 12.542C4.33756 12.542 2 10.1911 2 7.271Z" fill="black"/>
</svg>
